<?xml version="1.0" encoding="UTF-8"?> <svg xmlns="http://www.w3.org/2000/svg" width="68" height="73" viewBox="0 0 68 73" fill="none"><g clip-path="url(#clip0_1515_457)"><path d="M45.6577 19.768L34.0001 13.9247L22.3444 19.768V23.7319L34.0001 17.8895L45.6577 23.7319V19.768Z" stroke="#BE8B38" stroke-width="2.4" stroke-miterlimit="10" stroke-linecap="round" stroke-linejoin="round"></path><path d="M44.0548 40.3866V22.8156L34 17.8895L23.9463 22.8156V40.3866H1.12878V71.8595H66.8713V40.3866H44.0548Z" stroke="#BE8B38" stroke-width="2.4" stroke-miterlimit="10" stroke-linecap="round" stroke-linejoin="round"></path><path d="M38.1381 30.1217C38.1381 27.8141 36.2859 25.9442 34.0001 25.9442C31.7143 25.9442 29.8639 27.8141 29.8639 30.1217V36.13H38.1381V30.1217Z" stroke="#BE8B38" stroke-width="2.4" stroke-miterlimit="10" stroke-linecap="round" stroke-linejoin="round"></path><path d="M43.7649 57.6812C43.7649 52.2374 39.3925 47.8234 33.9982 47.8234C28.6077 47.8234 24.2354 52.2374 24.2354 57.6812V71.8595H43.7649V57.6812Z" stroke="#BE8B38" stroke-width="2.4" stroke-miterlimit="10" stroke-linecap="round" stroke-linejoin="round"></path><path d="M16.6695 51.999C16.6695 49.6933 14.8172 47.8234 12.5314 47.8234C10.2475 47.8234 8.39709 49.6933 8.39709 51.999V65.3429H16.6695V51.999Z" stroke="#BE8B38" stroke-width="2.4" stroke-miterlimit="10" stroke-linecap="round" stroke-linejoin="round"></path><path d="M59.6049 51.999C59.6049 49.6933 57.7527 47.8234 55.4688 47.8234C53.1811 47.8234 51.3307 49.6933 51.3307 51.999V65.3429H59.6049V51.999Z" stroke="#BE8B38" stroke-width="2.4" stroke-miterlimit="10" stroke-linecap="round" stroke-linejoin="round"></path><path d="M34 47.8234V71.8595" stroke="#BE8B38" stroke-width="2.4" stroke-miterlimit="10" stroke-linecap="round" stroke-linejoin="round"></path><path d="M29.8733 5.67932H38.1268" stroke="#BE8B38" stroke-width="2.4" stroke-miterlimit="10" stroke-linecap="round" stroke-linejoin="round"></path><path d="M34 1.14044V13.9247" stroke="#BE8B38" stroke-width="2.4" stroke-miterlimit="10" stroke-linecap="round" stroke-linejoin="round"></path></g><defs><clipPath id="clip0_1515_457"><rect width="68" height="73" fill="white"></rect></clipPath></defs></svg> 