<?xml version="1.0" encoding="UTF-8"?> <svg xmlns="http://www.w3.org/2000/svg" width="51" height="72" viewBox="0 0 51 72" fill="none"><g clip-path="url(#clip0_1515_488)"><path d="M35.117 15.729L25.424 25.424L15.73 15.729V1.17603H35.117V15.729Z" stroke="#BE8B38" stroke-width="2.4" stroke-miterlimit="10" stroke-linecap="round" stroke-linejoin="round"></path><path d="M35.117 1.17603L25.424 5.14503L15.73 1.17603" stroke="#BE8B38" stroke-width="2.4" stroke-miterlimit="10" stroke-linecap="round" stroke-linejoin="round"></path><path d="M25.4241 5.14502V25.424" stroke="#BE8B38" stroke-width="2.4" stroke-miterlimit="10" stroke-linecap="round" stroke-linejoin="round"></path><path d="M35.117 35.1171L25.424 25.4241L15.73 35.1171V70.1171H35.117V35.1171Z" stroke="#BE8B38" stroke-width="2.4" stroke-miterlimit="10" stroke-linecap="round" stroke-linejoin="round"></path><path d="M35.117 70.1171L25.424 66.1481L15.73 70.1171" stroke="#BE8B38" stroke-width="2.4" stroke-miterlimit="10" stroke-linecap="round" stroke-linejoin="round"></path><path d="M25.4241 66.1481V25.4241" stroke="#BE8B38" stroke-width="2.4" stroke-miterlimit="10" stroke-linecap="round" stroke-linejoin="round"></path><path d="M15.732 15.729L25.424 25.422L15.732 35.117H1.17603V15.729H15.732Z" stroke="#BE8B38" stroke-width="2.4" stroke-miterlimit="10" stroke-linecap="round" stroke-linejoin="round"></path><path d="M1.17603 15.729L5.14503 25.422L1.17603 35.117" stroke="#BE8B38" stroke-width="2.4" stroke-miterlimit="10" stroke-linecap="round" stroke-linejoin="round"></path><path d="M5.14502 25.422H25.424" stroke="#BE8B38" stroke-width="2.4" stroke-miterlimit="10" stroke-linecap="round" stroke-linejoin="round"></path><path d="M35.117 15.729L25.424 25.422L35.117 35.117H49.67V15.729H35.117Z" stroke="#BE8B38" stroke-width="2.4" stroke-miterlimit="10" stroke-linecap="round" stroke-linejoin="round"></path><path d="M49.67 15.729L45.701 25.422L49.67 35.117" stroke="#BE8B38" stroke-width="2.4" stroke-miterlimit="10" stroke-linecap="round" stroke-linejoin="round"></path><path d="M45.701 25.422H25.424" stroke="#BE8B38" stroke-width="2.4" stroke-miterlimit="10" stroke-linecap="round" stroke-linejoin="round"></path></g><defs><clipPath id="clip0_1515_488"><rect width="50.846" height="71.293" fill="white"></rect></clipPath></defs></svg> 