<?xml version="1.0" encoding="UTF-8"?> <svg xmlns="http://www.w3.org/2000/svg" width="70" height="62" viewBox="0 0 70 62" fill="none"><path d="M53.6191 50.975C53.6191 50.975 67.1766 35.7324 68.1024 34.1025C69.03 32.4734 69.03 18.5124 68.5666 15.2544C68.1728 12.4888 66.2499 11.8784 65.5544 11.8784C64.858 11.8784 62.0769 11.9945 62.1935 15.834C62.2477 17.5836 62.2684 23.3415 62.1935 25.2589" stroke="#BE8B38" stroke-width="2.5" stroke-miterlimit="10" stroke-linecap="round" stroke-linejoin="round"></path><path d="M55.2403 37.0132C55.2403 37.0132 65.5588 28.595 61.6135 25.2599C56.6756 21.083 45.9136 35.8494 42.6114 40.2712C39.4827 44.4599 40.4094 49.464 40.4094 50.7438" stroke="#BE8B38" stroke-width="2.5" stroke-miterlimit="10" stroke-linecap="round" stroke-linejoin="round"></path><path d="M56.6313 56.0961C56.6313 58.7373 54.525 60.867 51.9165 60.867H41.9955C39.3879 60.867 37.2806 58.7373 37.2806 56.0961C37.2806 53.4602 39.3879 51.3251 41.9955 51.3251H51.9165C54.525 51.3251 56.6313 53.4593 56.6313 56.0961Z" stroke="#BE8B38" stroke-width="2.5" stroke-miterlimit="10"></path><path d="M16.3809 50.975C16.3809 50.975 2.82443 35.7324 1.89681 34.1025C0.971008 32.4734 0.971008 18.5124 1.43346 15.2544C1.82907 12.4888 3.75114 11.8784 4.44572 11.8784C5.1412 11.8784 7.92223 11.9945 7.80662 15.834C7.75152 17.5836 7.72985 23.3415 7.80662 25.2589" stroke="#BE8B38" stroke-width="2.5" stroke-miterlimit="10" stroke-linecap="round" stroke-linejoin="round"></path><path d="M14.7579 37.0132C14.7579 37.0132 4.44305 28.595 8.38653 25.2599C13.3245 21.083 24.0855 35.8494 27.3877 40.2712C30.5174 44.4599 29.5907 49.464 29.5907 50.7438" stroke="#BE8B38" stroke-width="2.5" stroke-miterlimit="10" stroke-linecap="round" stroke-linejoin="round"></path><path d="M13.3678 56.0961C13.3678 58.7373 15.4768 60.867 18.0835 60.867H28.0037C30.6122 60.867 32.7194 58.7373 32.7194 56.0961C32.7194 53.4602 30.6122 51.3251 28.0037 51.3251H18.0835C15.4768 51.3251 13.3678 53.4593 13.3678 56.0961Z" stroke="#BE8B38" stroke-width="2.5" stroke-miterlimit="10"></path><path d="M45.6608 7.88209H38.3203V1.13379H31.6798V7.88209H24.3392V14.5515H31.6798V29.3723H38.3203V14.5515H45.6608V7.88209Z" stroke="#BE8B38" stroke-width="2.5" stroke-miterlimit="10" stroke-linecap="round" stroke-linejoin="round"></path></svg> 